<svg width="133" height="133" xmlns="http://www.w3.org/2000/svg"><g fill="none" fill-rule="evenodd"><path d="M6.5 5.5v124h122V5.5H6.5z" stroke="#979797" fill="#FFF"/><path d="M0 133h133V0H0v133zM120.666 16.056c-.706 8.81-10.443 102.161-10.443 102.161s-.282 4.68-5.926 4.68H83.27v5.244h-33.6v-5.243H28.644c-5.644 0-5.927-4.68-5.927-4.68S12.98 24.865 12.275 16.055c-.704-8.81 6.748-7.93 6.748-7.93h94.895s7.453-.88 6.748 7.93z" fill="#00A550"/><path d="M94.041 23.492H29.06v24.68h34.22s9.49-15.077 30.762-24.68" fill="#F26F21"/><path d="M73.993 41.687C87.645 27.6 104.26 22.373 104.26 22.373v26.729s-14.287 4.661-19.156 21.503H58.118s2.222-14.83 15.875-28.918M53.106 93.966H80.94s-.846 24.574-.635 31.072H51.412s0-21.009 1.694-31.072" fill="#EC1D24"/><path fill="#00A550" d="M36.67 73.83v3.86l-4.27.06-.005 3.294h4.275v4.064h-4.275v3.25h4.275v3.86h-9.846V73.832zm25.706 0v3.86l-4.27.06-.006 3.294h4.276v4.064H58.1v3.25h4.276v3.86h-9.847V73.832zm25.706 0v3.86l-4.27.06-.005 3.294h4.275v4.064h-4.275v3.25h4.275v3.86h-9.847V73.832zm3.565-.48v18.512h5.386V78.74s.036-.814.576-1.213c.54-.4 2.415-.806 2.756.787v13.69h5.667v-15.39s.142-3.76-4.18-3.902c0 0-2.976 0-4.819 1.772v-1.135h-5.386zm-52.529.48v18.422h10.476v-3.935h-4.732V73.83zm23.47 0h4.997l2.251 12.186L72.23 73.83h4.152l-3.52 18.453h-7.317zm27.514 31.192a3.65 3.65 0 01-3.649-3.653 3.65 3.65 0 117.3 0 3.652 3.652 0 01-3.65 3.653m0-7.7a4.046 4.046 0 00-4.044 4.047 4.046 4.046 0 004.043 4.048 4.046 4.046 0 004.044-4.048 4.046 4.046 0 00-4.044-4.047"/><path d="M90.785 100.894c.446-.18.745-.52.775-1.011.06-1.083-.79-1.442-1.83-1.442h-1.436v4.3h.797v-1.707h.908l.705 1.708h.856l-.775-1.848zm-1.694-.498v-1.245h.847c.446 0 .818.142.818.626 0 .44-.402.62-.773.62h-.892z" fill="#00A550"/></g></svg>